# xmcd CD database file
#
# Track frame offsets:
#	150
#	9412
#	21974
#	31199
#	42752
#	52942
#	67684
#	74960
#	87412
#	97597
#	107082
#	116833
#	124855
#	134697
#	143336
#	158215
#	168807
#	181564
#	189817
#	200641
#	208947
#	221795
#	234478
#	241929
#
# Disc length: 3370 seconds
#
# Revision: 0
# Processed by: cddbd v1.5.2PL0 Copyright (c) Steve Scherf et al.
# Submitted via: CDex 1.79
#
DISCID=450d2818
DTITLE=Dick Damron - More Than Countrified [CD2/3)
DYEAR=2011
DGENRE=Country
TTITLE0=A Whole Lot Different
TTITLE1=Walk Out Of My World
TTITLE2=My Heart Doesn`t Sing
TTITLE3=Sentimental Memories
TTITLE4=Countrified
TTITLE5=No One Knows It Better Than A Clown
TTITLE6=Rise `n` Shine (1970)
TTITLE7=When Our Love Was Young
TTITLE8=The Long Green Line
TTITLE9=Jackson Country
TTITLE10=Going Home To The Country
TTITLE11=Walk A Country Mile
TTITLE12=Jimmy Justice
TTITLE13=Somewhere There`s A Mountain
TTITLE14=Lonesome City
TTITLE15=Mirrors Of My Mind
TTITLE16=Sweet Dreams Of Yesterday
TTITLE17=California Girl
TTITLE18=Sharing The Good Life
TTITLE19=Rise `n` Shine (1969)
TTITLE20=The Final Hour
TTITLE21=Cold Grey Winds Of Autumn
TTITLE22=One More Pretty Girl
TTITLE23=The End
EXTD=YEAR: 2011
EXTT0=
EXTT1=
EXTT2=
EXTT3=
EXTT4=
EXTT5=
EXTT6=
EXTT7=
EXTT8=
EXTT9=
EXTT10=
EXTT11=
EXTT12=
EXTT13=
EXTT14=
EXTT15=
EXTT16=
EXTT17=
EXTT18=
EXTT19=
EXTT20=
EXTT21=
EXTT22=
EXTT23=
PLAYORDER=
